<?xml version="1.0" encoding="iso-8859-1"?>
<!-- Uploaded to: SVG Repo, www.svgrepo.com, Generator: SVG Repo Mixer Tools -->
<svg fill="#000000" height="800px" width="800px" version="1.1" id="Layer_1" xmlns="http://www.w3.org/2000/svg" xmlns:xlink="http://www.w3.org/1999/xlink" 
	 viewBox="0 0 512 512" xml:space="preserve">
<g>
	<g>
		<path d="M448,243.2c-23.151,0-44.126,14.797-55.424,38.4H384V179.2c0-28.279-22.921-51.2-51.2-51.2H230.4v-8.576
			c23.603-11.298,38.4-32.273,38.4-55.424c0-35.302-34.449-64-76.8-64c-42.351,0-76.8,28.698-76.8,64
			c0,23.151,14.797,44.126,38.4,55.424V128H51.2C22.921,128,0,150.921,0,179.2v115.2c0,7.074,5.726,12.8,12.8,12.8h29.926
			c5.453,0,10.274-3.439,12.075-8.576C61.15,280.516,74.803,268.8,89.6,268.8c21.171,0,38.4,22.963,38.4,51.2
			c0,28.237-17.229,51.2-38.4,51.2c-14.797,0-28.45-11.716-34.799-29.824c-1.801-5.137-6.622-8.576-12.075-8.576H12.8
			c-7.074,0-12.8,5.726-12.8,12.8v115.2C0,489.079,22.921,512,51.2,512h281.6c28.279,0,51.2-22.921,51.2-51.2V358.4h8.576
			c11.298,23.603,32.273,38.4,55.424,38.4c35.302,0,64-34.449,64-76.8S483.302,243.2,448,243.2z M448,371.2
			c-14.797,0-28.45-11.716-34.799-29.824c-1.801-5.137-6.622-8.576-12.075-8.576H371.2c-7.074,0-12.8,5.726-12.8,12.8v115.2
			c0,14.114-11.486,25.6-25.6,25.6H51.2c-14.114,0-25.6-11.486-25.6-25.6V358.4h8.576c11.298,23.603,32.273,38.4,55.424,38.4
			c35.302,0,64-34.449,64-76.8s-28.698-76.8-64-76.8c-23.151,0-44.126,14.797-55.424,38.4H25.6V179.2
			c0-14.114,11.486-25.6,25.6-25.6h115.2c7.074,0,12.8-5.726,12.8-12.8v-29.926c0-5.453-3.439-10.274-8.576-12.075
			C152.516,92.45,140.8,78.797,140.8,64c0-21.171,22.963-38.4,51.2-38.4s51.2,17.229,51.2,38.4c0,14.797-11.716,28.45-29.824,34.799
			c-5.137,1.801-8.576,6.622-8.576,12.075V140.8c0,7.074,5.726,12.8,12.8,12.8h115.2c14.114,0,25.6,11.486,25.6,25.6v115.2
			c0,7.074,5.726,12.8,12.8,12.8h29.926c5.453,0,10.274-3.439,12.075-8.576C419.55,280.508,433.203,268.8,448,268.8
			c21.171,0,38.4,22.963,38.4,51.2C486.4,348.237,469.171,371.2,448,371.2z"/>
	</g>
</g>
</svg>